<svg width="54" height="54" viewBox="0 0 54 54" fill="none" xmlns="http://www.w3.org/2000/svg">
<g filter="url(#filter0_dd_102_9)">
<mask id="path-1-inside-1_102_9" fill="white">
<path d="M3 26C3 12.7452 13.7452 2 27 2C40.2548 2 51 12.7452 51 26C51 39.2548 40.2548 50 27 50C13.7452 50 3 39.2548 3 26Z"/>
</mask>
<path d="M3 26C3 12.7452 13.7452 2 27 2C40.2548 2 51 12.7452 51 26C51 39.2548 40.2548 50 27 50C13.7452 50 3 39.2548 3 26Z" fill="white" shape-rendering="crispEdges"/>
<path d="M27 50V48C14.8497 48 5 38.1503 5 26H3H1C1 40.3594 12.6406 52 27 52V50ZM51 26H49C49 38.1503 39.1503 48 27 48V50V52C41.3594 52 53 40.3594 53 26H51ZM27 2V4C39.1503 4 49 13.8497 49 26H51H53C53 11.6406 41.3594 0 27 0V2ZM27 2V0C12.6406 0 1 11.6406 1 26H3H5C5 13.8497 14.8497 4 27 4V2Z" fill="#95A7BE" mask="url(#path-1-inside-1_102_9)"/>
<path d="M34.5002 27.6667C34.5002 26.5616 34.0609 25.5018 33.2795 24.7204C32.4981 23.939 31.4383 23.4997 30.3333 23.4997C29.2282 23.4997 28.1684 23.939 27.387 24.7204C26.6056 25.5018 26.1663 26.5616 26.1663 27.6667V32.6667H27.8333V27.6667C27.8333 27.0036 28.0968 26.3679 28.5657 25.8991C29.0345 25.4303 29.6702 25.1667 30.3333 25.1667C30.9963 25.1667 31.632 25.4303 32.1008 25.8991C32.5697 26.3679 32.8333 27.0036 32.8333 27.6667V32.6667H34.5002V27.6667ZM36.1663 33.4997C36.1663 33.9599 35.7935 34.3337 35.3333 34.3337H32.0002C31.54 34.3337 31.1663 33.9599 31.1663 33.4997V27.6667C31.1663 27.4457 31.0784 27.2341 30.9221 27.0778C30.7658 26.9215 30.5543 26.8337 30.3333 26.8337C30.1122 26.8337 29.9007 26.9215 29.7444 27.0778C29.5881 27.2341 29.5002 27.4457 29.5002 27.6667V33.4997C29.5002 33.9599 29.1265 34.3337 28.6663 34.3337H25.3333C24.873 34.3337 24.5002 33.9599 24.5002 33.4997V27.6667C24.5002 26.1196 25.1143 24.6356 26.2083 23.5417C27.3022 22.4477 28.7862 21.8337 30.3333 21.8337L30.6223 21.8405C32.0642 21.912 33.4326 22.5161 34.4583 23.5417C35.5522 24.6356 36.1663 26.1196 36.1663 27.6667V33.4997Z" fill="#124679"/>
<path d="M21.9998 22.667C22.46 22.667 22.8337 23.0398 22.8337 23.5V33.5C22.8337 33.9602 22.46 34.333 21.9998 34.333H18.6667C18.2065 34.333 17.8337 33.9602 17.8337 33.5V23.5C17.8337 23.0398 18.2065 22.667 18.6667 22.667H21.9998ZM19.4998 32.667H21.1667V24.333H19.4998V32.667Z" fill="#124679"/>
<path d="M21.1667 19.3337C21.1667 18.8736 20.7938 18.4999 20.3337 18.4997C19.8735 18.4997 19.4998 18.8734 19.4998 19.3337C19.4999 19.7938 19.8736 20.1667 20.3337 20.1667C20.7937 20.1665 21.1666 19.7937 21.1667 19.3337ZM22.8337 19.3337C22.8336 20.7141 21.7142 21.8335 20.3337 21.8337C18.9531 21.8337 17.8339 20.7142 17.8337 19.3337C17.8337 17.953 18.953 16.8337 20.3337 16.8337C21.7143 16.8339 22.8337 17.9531 22.8337 19.3337Z" fill="#124679"/>
</g>
<defs>
<filter id="filter0_dd_102_9" x="0" y="0" width="54" height="54" filterUnits="userSpaceOnUse" color-interpolation-filters="sRGB">
<feFlood flood-opacity="0" result="BackgroundImageFix"/>
<feColorMatrix in="SourceAlpha" type="matrix" values="0 0 0 0 0 0 0 0 0 0 0 0 0 0 0 0 0 0 127 0" result="hardAlpha"/>
<feMorphology radius="1" operator="erode" in="SourceAlpha" result="effect1_dropShadow_102_9"/>
<feOffset dy="1"/>
<feGaussianBlur stdDeviation="1"/>
<feComposite in2="hardAlpha" operator="out"/>
<feColorMatrix type="matrix" values="0 0 0 0 0 0 0 0 0 0 0 0 0 0 0 0 0 0 0.1 0"/>
<feBlend mode="normal" in2="BackgroundImageFix" result="effect1_dropShadow_102_9"/>
<feColorMatrix in="SourceAlpha" type="matrix" values="0 0 0 0 0 0 0 0 0 0 0 0 0 0 0 0 0 0 127 0" result="hardAlpha"/>
<feOffset dy="1"/>
<feGaussianBlur stdDeviation="1.5"/>
<feComposite in2="hardAlpha" operator="out"/>
<feColorMatrix type="matrix" values="0 0 0 0 0 0 0 0 0 0 0 0 0 0 0 0 0 0 0.1 0"/>
<feBlend mode="normal" in2="effect1_dropShadow_102_9" result="effect2_dropShadow_102_9"/>
<feBlend mode="normal" in="SourceGraphic" in2="effect2_dropShadow_102_9" result="shape"/>
</filter>
</defs>
</svg>
