<?xml version="1.0" encoding="UTF-8"?><svg id="uuid-913933d5-0887-472d-b17a-d2efbe306943" xmlns="http://www.w3.org/2000/svg" xmlns:xlink="http://www.w3.org/1999/xlink" viewBox="0 0 229 185.9"><defs><style>.uuid-7d4dcc12-80cf-4720-880b-732ade3a6810{fill:url(#uuid-8396f228-57f8-4884-a3c4-201b6d6b9510);}.uuid-4134fd64-1007-462b-bfec-b92082d16c6a{fill:url(#uuid-a37b53b1-7dc5-4dd1-831b-a578f6a7a918);}.uuid-022b409b-800b-4d7c-9e48-abfe748fe068{fill:url(#uuid-c8fc22cc-c156-4e44-8454-4b8ead71aff8);}.uuid-77507497-5230-473b-abd6-845c3f9a837b{fill:url(#uuid-bc367c3a-2d74-4108-844f-03075c334916);}</style><linearGradient id="uuid-8396f228-57f8-4884-a3c4-201b6d6b9510" x1="153" y1="53.7" x2="204.1" y2="53.7" gradientTransform="translate(0 183.9) scale(1 -1)" gradientUnits="userSpaceOnUse"><stop offset="0" stop-color="#124679"/><stop offset="1" stop-color="#111e47"/></linearGradient><linearGradient id="uuid-c8fc22cc-c156-4e44-8454-4b8ead71aff8" x1="111.3" y1="116" x2="139.2" y2="116" gradientTransform="translate(0 183.9) scale(1 -1)" gradientUnits="userSpaceOnUse"><stop offset="0" stop-color="#979798"/><stop offset="1" stop-color="#707071"/></linearGradient><linearGradient id="uuid-bc367c3a-2d74-4108-844f-03075c334916" x1="47.2" y1="78.8" x2="193.7" y2="78.8" gradientTransform="translate(0 183.9) scale(1 -1)" gradientUnits="userSpaceOnUse"><stop offset="0" stop-color="#979798"/><stop offset="1" stop-color="#707071"/></linearGradient><linearGradient id="uuid-a37b53b1-7dc5-4dd1-831b-a578f6a7a918" x1="24.8" y1="91" x2="113" y2="91" gradientTransform="translate(0 183.9) scale(1 -1)" gradientUnits="userSpaceOnUse"><stop offset="0" stop-color="#124679"/><stop offset="1" stop-color="#111e47"/></linearGradient></defs><polygon class="uuid-7d4dcc12-80cf-4720-880b-732ade3a6810" points="153 123.9 178.6 154.5 204.1 154.5 165.8 105.9 153 123.9"/><path class="uuid-022b409b-800b-4d7c-9e48-abfe748fe068" d="M139.2,66.9l-13.2,18.5c-2.3-3.7-5.4-7-9.1-9.4h0c.6-11.9-2.8-20.6-5.5-25.6h0c11,2.5,20.7,8.4,27.9,16.6h-.1Z"/><path class="uuid-77507497-5230-473b-abd6-845c3f9a837b" d="M193.6,58.8l-45.8,65.7c-1.2,1.7-2.3,3.4-3.3,5.1-9.3,14.9-25.9,24.8-44.8,24.8-52.5,0-72.1-68.4-28.6-96.9.9-.6,1.7-1.1,2.6-1.6,5.5.9,14.1,4.3,15.2,16.8-.6.2-1.2.5-1.8.7-8.7,3.9-15.3,11.8-17.5,21.4-.5,2.2-.8,4.5-.8,6.9,0,5,1.2,9.8,3.3,14,5.1,10.1,15.6,17,27.7,17s14.7-2.8,20.1-7.4h0c1.1-1,2.1-2,2.9-3.2l4.7-6.6,15.5-21.6,6.7-9.3,18.3-25.8h25.7,0Z"/><path class="uuid-4134fd64-1007-462b-bfec-b92082d16c6a" d="M113,73.6c0,2.9-.3,5.9-1,8.9-2.1,9.5-6.8,16.4-12.1,21.3-5.7,5.4-12.8,9-20.4,10.7-.6,0-1.3.3-2,.4-6.2-6.1-4.8-16.2-4-20.3h.9c8.4-1.1,15.5-6.9,18-15.2.7-2.4,1-5,.8-7.7v-.4c-.2-1.9-.7-3.8-1.5-5.7-3.2-7.5-8.4-11-12.3-12.6-2.9-1.2-5.1-1.3-5.1-1.3h-29.1v103l-20.3-16.5V31.3c0-.3,47.5.2,47.5.2,13.6.5,25.5,7.5,32.8,17.8,4.8,6.7,7.6,14.8,7.8,23.5,0,.3,0,.6,0,.8Z"/></svg>