<?xml version="1.0" encoding="UTF-8"?><svg id="uuid-cf4e36bf-a28c-4849-8b16-3e9f6ee31e52" xmlns="http://www.w3.org/2000/svg" xmlns:xlink="http://www.w3.org/1999/xlink" viewBox="0 0 935.5 185.9"><defs><style>.uuid-6518e339-fbe8-4d0d-abbb-6a58974f6cdb{font-family:Poppins-Bold, Poppins;font-size:119.5px;font-weight:700;}.uuid-6518e339-fbe8-4d0d-abbb-6a58974f6cdb,.uuid-79854946-5d56-4407-9328-77af4a92d940,.uuid-9c071d10-9811-42b3-8ba2-152eb60e70e0{fill:#111e47;}.uuid-e7da1253-ffbd-4374-b479-ec7968e8972b{fill:url(#uuid-79968faa-82c5-4c7c-91ad-6938fbed2df8);}.uuid-b2d4c5ba-e549-4452-9d19-b784e54c7d7f{fill:url(#uuid-37fd8eaf-9722-4300-bdbc-e3879f03acbe);}.uuid-bebd3277-d6c0-4fdc-aa4c-a338c0d30cb7{fill:url(#uuid-60fa867b-3ac3-40f9-8dda-b5bd829fcdca);}.uuid-9c071d10-9811-42b3-8ba2-152eb60e70e0{font-family:Poppins-Light, Poppins;font-size:54.5px;font-weight:300;}.uuid-4eaafc87-2a1e-48f9-89e4-450b1b2f2191{fill:url(#uuid-b63940d6-83d0-4d7f-b025-e4758a5d9466);}</style><linearGradient id="uuid-37fd8eaf-9722-4300-bdbc-e3879f03acbe" x1="159.6" y1="121.7" x2="210.7" y2="121.7" gradientUnits="userSpaceOnUse"><stop offset="0" stop-color="#124679"/><stop offset="1" stop-color="#111e47"/></linearGradient><linearGradient id="uuid-60fa867b-3ac3-40f9-8dda-b5bd829fcdca" x1="117.9" y1="59.4" x2="145.8" y2="59.4" gradientUnits="userSpaceOnUse"><stop offset="0" stop-color="#979798"/><stop offset="1" stop-color="#707071"/></linearGradient><linearGradient id="uuid-79968faa-82c5-4c7c-91ad-6938fbed2df8" x1="53.7" y1="96.6" x2="200.2" y2="96.6" xlink:href="#uuid-60fa867b-3ac3-40f9-8dda-b5bd829fcdca"/><linearGradient id="uuid-b63940d6-83d0-4d7f-b025-e4758a5d9466" x1="31.4" y1="84.4" x2="119.6" y2="84.4" xlink:href="#uuid-37fd8eaf-9722-4300-bdbc-e3879f03acbe"/></defs><text class="uuid-9c071d10-9811-42b3-8ba2-152eb60e70e0" transform="translate(235.9 159.3) rotate(0)"><tspan x="0" y="0" xml:space="preserve">Simplify  Optimize  Grow</tspan></text><path class="uuid-79854946-5d56-4407-9328-77af4a92d940" d="M461.8,142.4c-.5-.5-1.1-.8-1.8-.8s-1.4.2-1.9.8c-.5.5-.8,1.1-.8,1.9,0,.8.2,1.4.8,1.9.5.5,1.1.8,1.9.8.7,0,1.3-.3,1.8-.8.5-.5.8-1.2.8-1.9,0-.8-.2-1.4-.8-1.9Z"/><path class="uuid-79854946-5d56-4407-9328-77af4a92d940" d="M730.1,142.8c-.5-.5-1.1-.8-1.9-.8s-1.4.2-1.9.8-.8,1.1-.8,1.9.3,1.4.8,1.9c.5.5,1.1.8,1.9.8s1.4-.3,1.9-.8c.5-.5.8-1.2.8-1.9s-.3-1.4-.8-1.9Z"/><text class="uuid-6518e339-fbe8-4d0d-abbb-6a58974f6cdb" transform="translate(235.9 97.4) rotate(0)"><tspan x="0" y="0">PROCALYX</tspan></text><polygon class="uuid-b2d4c5ba-e549-4452-9d19-b784e54c7d7f" points="159.6 115.4 185.2 146 210.7 146 172.4 97.4 159.6 115.4"/><path class="uuid-bebd3277-d6c0-4fdc-aa4c-a338c0d30cb7" d="M145.8,58.4l-13.2,18.5c-2.3-3.7-5.4-7-9.1-9.4,0,0,0,0,0,0,.6-11.9-2.8-20.6-5.5-25.6,0,0,0,0,0,0,11,2.5,20.7,8.4,27.9,16.6Z"/><path class="uuid-e7da1253-ffbd-4374-b479-ec7968e8972b" d="M200.2,50.3l-45.8,65.7c-1.2,1.7-2.3,3.4-3.3,5.1-9.3,14.9-25.9,24.8-44.8,24.8-52.5,0-72.1-68.4-28.6-96.9.9-.6,1.7-1.1,2.6-1.6,5.5.9,14.1,4.3,15.2,16.8-.6.2-1.2.5-1.8.7-8.7,3.9-15.3,11.8-17.5,21.4-.5,2.2-.8,4.5-.8,6.9,0,5,1.2,9.8,3.3,14,5.1,10.1,15.6,17,27.7,17s14.7-2.8,20.1-7.4h0c1.1-1,2.1-2,2.9-3.2l4.7-6.6,15.5-21.6,6.7-9.3,18.3-25.8h25.7Z"/><path class="uuid-4eaafc87-2a1e-48f9-89e4-450b1b2f2191" d="M119.6,65.1c0,2.9-.3,5.9-1,8.9-2.1,9.5-6.8,16.4-12.1,21.3-5.7,5.4-12.8,9-20.4,10.7-.6.1-1.3.3-2,.4-6.2-6.1-4.8-16.2-4-20.3.3,0,.6,0,.9,0,8.4-1.1,15.5-6.9,18-15.2.7-2.4,1-5,.8-7.7,0-.1,0-.2,0-.4-.2-1.9-.7-3.8-1.5-5.7-3.2-7.5-8.4-11-12.3-12.6-2.9-1.2-5.1-1.3-5.1-1.3h-29.1v103l-20.3-16.5V22.8c0-.3,47.5.2,47.5.2,13.6.5,25.5,7.5,32.8,17.8,4.8,6.7,7.6,14.8,7.8,23.5,0,.3,0,.6,0,.8Z"/><path d="M888.8,16.2h-4v-1.9h10.3v1.9h-4v10.2h-2.3v-10.2h0Z"/><path d="M907.8,26.4v-8l-4,6.6h-1l-4-6.5v7.9h-2.1v-12.1h1.9l4.8,8,4.7-8h1.9v12.1h-2.1,0Z"/></svg>