<svg width="817" height="582" viewBox="0 0 817 582" fill="none" xmlns="http://www.w3.org/2000/svg">
<path d="M575.961 436.796L696.259 580.984H816.087L636.11 351.98L575.961 436.796Z" fill="url(#paint0_linear_66_252)" fill-opacity="0.05"/>
<path d="M511.114 168.203L449.085 255.376C438.277 237.941 423.71 222.392 406.323 211.083C409.143 155.01 393.165 114.015 380.478 90.455C432.168 102.235 477.75 130.036 511.584 168.675H511.114V168.203Z" fill="url(#paint1_linear_66_252)" fill-opacity="0.05"/>
<path d="M766.748 130.035L551.527 439.615C545.888 447.626 540.719 455.636 536.02 463.647C492.318 533.856 414.312 580.505 325.499 580.505C78.7934 580.505 -13.3099 258.202 191.103 123.91C195.332 121.082 199.092 118.726 203.321 116.37C229.166 120.611 269.579 136.632 274.748 195.532C271.928 196.475 269.109 197.888 266.289 198.831C225.407 217.208 194.392 254.433 184.054 299.668C181.705 310.035 180.295 320.872 180.295 332.181C180.295 355.741 185.934 378.359 195.802 398.15C219.768 445.741 269.109 478.254 325.968 478.254C382.828 478.254 395.046 465.06 420.421 443.385C425.59 438.673 430.289 433.961 434.049 428.306L456.135 397.207L528.972 295.427L560.456 251.605L646.45 130.035H767.218H766.748Z" fill="url(#paint2_linear_66_252)" fill-opacity="0.05"/>
<path d="M387.995 199.77C387.995 213.435 386.585 227.571 383.296 241.707C373.427 286.472 351.341 318.985 326.436 342.074C299.651 367.519 266.287 384.482 230.573 392.492C227.754 392.492 224.464 393.906 221.175 394.377C192.04 365.634 198.619 318.042 202.378 298.723H206.608C246.081 293.54 279.444 266.21 291.192 227.1C294.482 215.791 295.892 203.54 294.952 190.818V188.933C294.012 179.98 291.662 171.027 287.903 162.074C272.866 126.734 248.43 110.242 230.103 102.703C216.476 97.0482 206.138 96.577 206.138 96.577H69.3927V581.916L-26 504.167V0.451685C-26 -0.961923 197.209 1.39409 197.209 1.39409C261.118 3.75011 317.038 36.7343 351.341 85.2682C373.897 116.839 387.055 155.006 387.995 196.001C387.995 197.414 387.995 198.828 387.995 199.77Z" fill="url(#paint3_linear_66_252)" fill-opacity="0.05"/>
<defs>
<linearGradient id="paint0_linear_66_252" x1="696.024" y1="480.469" x2="696.024" y2="580.984" gradientUnits="userSpaceOnUse">
<stop stop-color="#124679"/>
<stop offset="1" stop-color="white"/>
</linearGradient>
<linearGradient id="paint1_linear_66_252" x1="446.031" y1="182.988" x2="446.031" y2="255.376" gradientUnits="userSpaceOnUse">
<stop stop-color="#124679"/>
<stop offset="1" stop-color="white"/>
</linearGradient>
<linearGradient id="paint2_linear_66_252" x1="422.977" y1="376.786" x2="422.977" y2="580.505" gradientUnits="userSpaceOnUse">
<stop stop-color="#124679"/>
<stop offset="1" stop-color="white"/>
</linearGradient>
<linearGradient id="paint3_linear_66_252" x1="180.997" y1="326.5" x2="180.997" y2="581.916" gradientUnits="userSpaceOnUse">
<stop stop-color="#124679"/>
<stop offset="1" stop-color="white"/>
</linearGradient>
</defs>
</svg>
