<svg width="54" height="54" viewBox="0 0 54 54" fill="none" xmlns="http://www.w3.org/2000/svg">
<g filter="url(#filter0_dd_102_6)">
<mask id="path-1-inside-1_102_6" fill="white">
<path d="M3 26C3 12.7452 13.7452 2 27 2C40.2548 2 51 12.7452 51 26C51 39.2548 40.2548 50 27 50C13.7452 50 3 39.2548 3 26Z"/>
</mask>
<path d="M3 26C3 12.7452 13.7452 2 27 2C40.2548 2 51 12.7452 51 26C51 39.2548 40.2548 50 27 50C13.7452 50 3 39.2548 3 26Z" fill="white" shape-rendering="crispEdges"/>
<path d="M27 50V48C14.8497 48 5 38.1503 5 26H3H1C1 40.3594 12.6406 52 27 52V50ZM51 26H49C49 38.1503 39.1503 48 27 48V50V52C41.3594 52 53 40.3594 53 26H51ZM27 2V4C39.1503 4 49 13.8497 49 26H51H53C53 11.6406 41.3594 0 27 0V2ZM27 2V0C12.6406 0 1 11.6406 1 26H3H5C5 13.8497 14.8497 4 27 4V2Z" fill="#95A7BE" mask="url(#path-1-inside-1_102_6)"/>
<path d="M32.2033 17.875H34.9599L28.9374 24.7583L36.0224 34.125H30.4749L26.1299 28.4442L21.1583 34.125H18.3999L24.8416 26.7625L18.0449 17.875H23.7333L27.6608 23.0675L32.2033 17.875ZM31.2358 32.475H32.7633L22.9033 19.4383H21.2641L31.2358 32.475Z" fill="#124679"/>
</g>
<defs>
<filter id="filter0_dd_102_6" x="0" y="0" width="54" height="54" filterUnits="userSpaceOnUse" color-interpolation-filters="sRGB">
<feFlood flood-opacity="0" result="BackgroundImageFix"/>
<feColorMatrix in="SourceAlpha" type="matrix" values="0 0 0 0 0 0 0 0 0 0 0 0 0 0 0 0 0 0 127 0" result="hardAlpha"/>
<feMorphology radius="1" operator="erode" in="SourceAlpha" result="effect1_dropShadow_102_6"/>
<feOffset dy="1"/>
<feGaussianBlur stdDeviation="1"/>
<feComposite in2="hardAlpha" operator="out"/>
<feColorMatrix type="matrix" values="0 0 0 0 0 0 0 0 0 0 0 0 0 0 0 0 0 0 0.1 0"/>
<feBlend mode="normal" in2="BackgroundImageFix" result="effect1_dropShadow_102_6"/>
<feColorMatrix in="SourceAlpha" type="matrix" values="0 0 0 0 0 0 0 0 0 0 0 0 0 0 0 0 0 0 127 0" result="hardAlpha"/>
<feOffset dy="1"/>
<feGaussianBlur stdDeviation="1.5"/>
<feComposite in2="hardAlpha" operator="out"/>
<feColorMatrix type="matrix" values="0 0 0 0 0 0 0 0 0 0 0 0 0 0 0 0 0 0 0.1 0"/>
<feBlend mode="normal" in2="effect1_dropShadow_102_6" result="effect2_dropShadow_102_6"/>
<feBlend mode="normal" in="SourceGraphic" in2="effect2_dropShadow_102_6" result="shape"/>
</filter>
</defs>
</svg>
