<svg width="48" height="48" viewBox="0 0 48 48" fill="none" xmlns="http://www.w3.org/2000/svg">
<path d="M24 1C36.7025 1 47 11.2975 47 24C47 36.7025 36.7025 47 24 47C11.2975 47 1 36.7025 1 24C1 11.2975 11.2975 1 24 1Z" fill="white"/>
<path d="M24 1C36.7025 1 47 11.2975 47 24C47 36.7025 36.7025 47 24 47C11.2975 47 1 36.7025 1 24C1 11.2975 11.2975 1 24 1Z" stroke="#95A7BE" stroke-width="2"/>
<g clip-path="url(#clip0_102_14)">
<path d="M28.5601 25.985C28.3126 25.8608 27.0951 25.2625 26.8684 25.1791C26.6409 25.0966 26.4759 25.0558 26.3101 25.3041C26.1459 25.5516 25.6709 26.1091 25.5268 26.2741C25.3826 26.44 25.2376 26.46 24.9901 26.3366C24.7426 26.2116 23.9443 25.9508 22.9984 25.1075C22.2626 24.4508 21.7651 23.64 21.6209 23.3916C21.4768 23.1441 21.6059 23.01 21.7293 22.8866C21.8409 22.7758 21.9776 22.5975 22.1009 22.4533C22.2251 22.3083 22.2659 22.205 22.3493 22.0391C22.4318 21.8741 22.3909 21.73 22.3284 21.6058C22.2659 21.4816 21.7709 20.2625 21.5651 19.7666C21.3634 19.2841 21.1593 19.35 21.0076 19.3416C20.8634 19.335 20.6984 19.3333 20.5326 19.3333C20.3676 19.3333 20.0993 19.395 19.8726 19.6433C19.6459 19.8908 19.0059 20.49 19.0059 21.7091C19.0059 22.9275 19.8934 24.105 20.0168 24.2708C20.1409 24.4358 21.7634 26.9375 24.2476 28.01C24.8384 28.265 25.2993 28.4175 25.6593 28.5308C26.2526 28.72 26.7926 28.6933 27.2184 28.6291C27.6943 28.5583 28.6834 28.03 28.8901 27.4516C29.0968 26.8733 29.0968 26.3775 29.0343 26.2741C28.9726 26.1708 28.8084 26.1091 28.5601 25.985ZM24.0418 32.1541H24.0384C22.5632 32.1543 21.1152 31.7576 19.8459 31.0058L19.5451 30.8275L16.4276 31.6458L17.2593 28.6058L17.0634 28.2941C16.2388 26.981 15.8026 25.4614 15.8051 23.9108C15.8059 19.3691 19.5018 15.6741 24.0451 15.6741C26.2451 15.6741 28.3134 16.5325 29.8684 18.0891C30.6357 18.853 31.2438 19.7614 31.6576 20.7618C32.0714 21.7623 32.2827 22.8348 32.2793 23.9175C32.2768 28.4591 28.5818 32.1541 24.0418 32.1541ZM31.0526 16.9066C30.1344 15.9824 29.042 15.2496 27.8385 14.7506C26.6351 14.2517 25.3446 13.9965 24.0418 14C18.5793 14 14.1334 18.4458 14.1309 23.91C14.1309 25.6566 14.5868 27.3616 15.4543 28.8641L14.0476 34L19.3018 32.6216C20.7548 33.4132 22.383 33.8281 24.0376 33.8283H24.0418C29.5034 33.8283 33.9501 29.3825 33.9526 23.9175C33.9566 22.6152 33.7024 21.3251 33.2046 20.1217C32.7069 18.9183 31.9754 17.8255 31.0526 16.9066Z" fill="#124679"/>
</g>
<defs>
<clipPath id="clip0_102_14">
<rect width="20" height="20" fill="white" transform="translate(14 14)"/>
</clipPath>
</defs>
</svg>
